<mxfile host="app.diagrams.net" modified="2023-10-08T15:23:24.642Z" agent="Mozilla/5.0 (Windows NT 10.0; Win64; x64) AppleWebKit/537.36 (KHTML, like Gecko) Chrome/117.0.0.0 Safari/537.36" etag="r_QeTMoEXIkmJgg8xSdp" version="22.0.4" type="github">
  <diagram name="Página-1" id="cpLTAqSigNh9UwCI0jpD">
    <mxGraphModel dx="1434" dy="907" grid="1" gridSize="10" guides="1" tooltips="1" connect="1" arrows="1" fold="1" page="1" pageScale="1" pageWidth="583" pageHeight="827" background="none" math="0" shadow="1">
      <root>
        <mxCell id="0" />
        <mxCell id="1" parent="0" />
        <mxCell id="XdlR8K-dp57HfDcc4aQY-134" value="" style="edgeStyle=orthogonalEdgeStyle;rounded=0;orthogonalLoop=1;jettySize=auto;html=1;startArrow=oval;startFill=1;endArrow=oval;endFill=1;" edge="1" parent="1" source="XdlR8K-dp57HfDcc4aQY-1" target="XdlR8K-dp57HfDcc4aQY-133">
          <mxGeometry relative="1" as="geometry">
            <mxPoint x="120" y="40" as="sourcePoint" />
            <mxPoint x="448" y="40" as="targetPoint" />
          </mxGeometry>
        </mxCell>
        <mxCell id="XdlR8K-dp57HfDcc4aQY-133" value="Pertence" style="rhombus;whiteSpace=wrap;html=1;direction=west;container=0;" vertex="1" parent="1">
          <mxGeometry x="180" width="210" height="80" as="geometry" />
        </mxCell>
        <mxCell id="XdlR8K-dp57HfDcc4aQY-76" value="" style="edgeStyle=orthogonalEdgeStyle;rounded=0;orthogonalLoop=1;jettySize=auto;html=1;startArrow=oval;startFill=1;endArrow=oval;endFill=1;" edge="1" parent="1" source="XdlR8K-dp57HfDcc4aQY-133" target="XdlR8K-dp57HfDcc4aQY-2">
          <mxGeometry relative="1" as="geometry" />
        </mxCell>
        <mxCell id="XdlR8K-dp57HfDcc4aQY-190" value="Reserva" style="rhombus;whiteSpace=wrap;html=1;direction=west;container=0;" vertex="1" parent="1">
          <mxGeometry x="650" width="170" height="80" as="geometry" />
        </mxCell>
        <mxCell id="XdlR8K-dp57HfDcc4aQY-192" value="" style="edgeStyle=orthogonalEdgeStyle;rounded=0;orthogonalLoop=1;jettySize=auto;html=1;startArrow=oval;startFill=1;endArrow=oval;endFill=1;exitX=0;exitY=0.5;exitDx=0;exitDy=0;entryX=0;entryY=0.5;entryDx=0;entryDy=0;" edge="1" parent="1" source="XdlR8K-dp57HfDcc4aQY-190" target="XdlR8K-dp57HfDcc4aQY-3">
          <mxGeometry relative="1" as="geometry">
            <mxPoint x="825" y="39.58" as="sourcePoint" />
            <mxPoint x="910" y="40" as="targetPoint" />
          </mxGeometry>
        </mxCell>
        <mxCell id="XdlR8K-dp57HfDcc4aQY-193" value="" style="edgeStyle=orthogonalEdgeStyle;rounded=0;orthogonalLoop=1;jettySize=auto;html=1;startArrow=oval;startFill=1;endArrow=oval;endFill=1;entryX=1;entryY=0.5;entryDx=0;entryDy=0;" edge="1" parent="1" target="XdlR8K-dp57HfDcc4aQY-190">
          <mxGeometry relative="1" as="geometry">
            <mxPoint x="570" y="40" as="sourcePoint" />
            <mxPoint x="630" y="39.58" as="targetPoint" />
          </mxGeometry>
        </mxCell>
        <mxCell id="XdlR8K-dp57HfDcc4aQY-1" value="Voo" style="rounded=0;whiteSpace=wrap;html=1;container=0;" vertex="1" parent="1">
          <mxGeometry y="10" width="120" height="60" as="geometry" />
        </mxCell>
        <mxCell id="XdlR8K-dp57HfDcc4aQY-11" value="ID(PK)" style="text;html=1;align=center;verticalAlign=middle;resizable=0;points=[];autosize=1;strokeColor=none;fillColor=none;container=0;" vertex="1" parent="1">
          <mxGeometry x="60" y="110" width="60" height="30" as="geometry" />
        </mxCell>
        <mxCell id="XdlR8K-dp57HfDcc4aQY-12" value="Número avião" style="text;html=1;align=center;verticalAlign=middle;resizable=0;points=[];autosize=1;strokeColor=none;fillColor=none;container=0;" vertex="1" parent="1">
          <mxGeometry x="50" y="150" width="100" height="30" as="geometry" />
        </mxCell>
        <mxCell id="XdlR8K-dp57HfDcc4aQY-13" value="Cidade origem" style="text;html=1;align=center;verticalAlign=middle;resizable=0;points=[];autosize=1;strokeColor=none;fillColor=none;container=0;" vertex="1" parent="1">
          <mxGeometry x="50" y="210" width="100" height="30" as="geometry" />
        </mxCell>
        <mxCell id="XdlR8K-dp57HfDcc4aQY-14" value="Cidade destino" style="text;html=1;align=center;verticalAlign=middle;resizable=0;points=[];autosize=1;strokeColor=none;fillColor=none;container=0;" vertex="1" parent="1">
          <mxGeometry x="50" y="260" width="100" height="30" as="geometry" />
        </mxCell>
        <mxCell id="XdlR8K-dp57HfDcc4aQY-15" value="Data voo" style="text;html=1;align=center;verticalAlign=middle;resizable=0;points=[];autosize=1;strokeColor=none;fillColor=none;container=0;" vertex="1" parent="1">
          <mxGeometry x="50" y="360" width="70" height="30" as="geometry" />
        </mxCell>
        <mxCell id="XdlR8K-dp57HfDcc4aQY-16" value="Hora voo" style="text;html=1;align=center;verticalAlign=middle;resizable=0;points=[];autosize=1;strokeColor=none;fillColor=none;container=0;" vertex="1" parent="1">
          <mxGeometry x="50" y="300" width="70" height="30" as="geometry" />
        </mxCell>
        <mxCell id="XdlR8K-dp57HfDcc4aQY-24" value="" style="edgeStyle=segmentEdgeStyle;endArrow=none;html=1;rounded=1;endSize=8;startSize=8;startArrow=oval;startFill=1;endFill=0;" edge="1" parent="1">
          <mxGeometry width="50" height="50" relative="1" as="geometry">
            <mxPoint x="60" y="120" as="sourcePoint" />
            <mxPoint x="10" y="70" as="targetPoint" />
          </mxGeometry>
        </mxCell>
        <mxCell id="XdlR8K-dp57HfDcc4aQY-25" value="" style="edgeStyle=segmentEdgeStyle;endArrow=none;html=1;curved=0;rounded=0;endSize=8;startSize=8;endFill=0;startArrow=oval;startFill=0;" edge="1" parent="1">
          <mxGeometry width="50" height="50" relative="1" as="geometry">
            <mxPoint x="50" y="170" as="sourcePoint" />
            <mxPoint x="10" y="120" as="targetPoint" />
          </mxGeometry>
        </mxCell>
        <mxCell id="XdlR8K-dp57HfDcc4aQY-26" value="" style="edgeStyle=segmentEdgeStyle;endArrow=none;html=1;curved=0;rounded=0;endSize=8;startSize=8;endFill=0;startArrow=oval;startFill=0;" edge="1" parent="1">
          <mxGeometry width="50" height="50" relative="1" as="geometry">
            <mxPoint x="50" y="220" as="sourcePoint" />
            <mxPoint x="10" y="170" as="targetPoint" />
          </mxGeometry>
        </mxCell>
        <mxCell id="XdlR8K-dp57HfDcc4aQY-27" value="" style="edgeStyle=segmentEdgeStyle;endArrow=none;html=1;curved=0;rounded=0;endSize=8;startSize=8;endFill=0;startArrow=oval;startFill=0;" edge="1" parent="1">
          <mxGeometry width="50" height="50" relative="1" as="geometry">
            <mxPoint x="50" y="270" as="sourcePoint" />
            <mxPoint x="10" y="220" as="targetPoint" />
          </mxGeometry>
        </mxCell>
        <mxCell id="XdlR8K-dp57HfDcc4aQY-28" value="" style="edgeStyle=segmentEdgeStyle;endArrow=none;html=1;curved=0;rounded=0;endSize=8;startSize=8;endFill=0;startArrow=oval;startFill=0;" edge="1" parent="1">
          <mxGeometry width="50" height="50" relative="1" as="geometry">
            <mxPoint x="50" y="320" as="sourcePoint" />
            <mxPoint x="10" y="270" as="targetPoint" />
          </mxGeometry>
        </mxCell>
        <mxCell id="XdlR8K-dp57HfDcc4aQY-29" value="" style="edgeStyle=segmentEdgeStyle;endArrow=none;html=1;curved=0;rounded=0;endSize=8;startSize=8;endFill=0;startArrow=oval;startFill=0;" edge="1" parent="1">
          <mxGeometry width="50" height="50" relative="1" as="geometry">
            <mxPoint x="50" y="370" as="sourcePoint" />
            <mxPoint x="10" y="320" as="targetPoint" />
          </mxGeometry>
        </mxCell>
        <mxCell id="XdlR8K-dp57HfDcc4aQY-194" style="edgeStyle=orthogonalEdgeStyle;rounded=0;orthogonalLoop=1;jettySize=auto;html=1;exitX=1;exitY=0.5;exitDx=0;exitDy=0;" edge="1" parent="1" source="XdlR8K-dp57HfDcc4aQY-2">
          <mxGeometry relative="1" as="geometry">
            <mxPoint x="568.3333333333335" y="40.333333333333485" as="targetPoint" />
          </mxGeometry>
        </mxCell>
        <mxCell id="XdlR8K-dp57HfDcc4aQY-2" value="assento" style="rounded=0;whiteSpace=wrap;html=1;container=0;" vertex="1" parent="1">
          <mxGeometry x="448" y="10" width="120" height="60" as="geometry" />
        </mxCell>
        <mxCell id="XdlR8K-dp57HfDcc4aQY-30" value="" style="edgeStyle=segmentEdgeStyle;endArrow=none;html=1;rounded=1;endSize=8;startSize=8;startArrow=oval;startFill=1;endFill=0;" edge="1" parent="1">
          <mxGeometry width="50" height="50" relative="1" as="geometry">
            <mxPoint x="508" y="120" as="sourcePoint" />
            <mxPoint x="458" y="70" as="targetPoint" />
          </mxGeometry>
        </mxCell>
        <mxCell id="XdlR8K-dp57HfDcc4aQY-31" value="" style="edgeStyle=segmentEdgeStyle;endArrow=none;html=1;curved=0;rounded=0;endSize=8;startSize=8;endFill=0;startArrow=oval;startFill=0;" edge="1" parent="1">
          <mxGeometry width="50" height="50" relative="1" as="geometry">
            <mxPoint x="498" y="170" as="sourcePoint" />
            <mxPoint x="458" y="120" as="targetPoint" />
          </mxGeometry>
        </mxCell>
        <mxCell id="XdlR8K-dp57HfDcc4aQY-32" value="ID(PK)" style="text;html=1;align=center;verticalAlign=middle;resizable=0;points=[];autosize=1;strokeColor=none;fillColor=none;container=0;" vertex="1" parent="1">
          <mxGeometry x="508" y="110" width="60" height="30" as="geometry" />
        </mxCell>
        <mxCell id="XdlR8K-dp57HfDcc4aQY-33" value="Quantidade" style="text;html=1;align=center;verticalAlign=middle;resizable=0;points=[];autosize=1;strokeColor=none;fillColor=none;container=0;" vertex="1" parent="1">
          <mxGeometry x="493" y="210" width="90" height="30" as="geometry" />
        </mxCell>
        <mxCell id="XdlR8K-dp57HfDcc4aQY-145" value="" style="edgeStyle=orthogonalEdgeStyle;rounded=0;orthogonalLoop=1;jettySize=auto;html=1;startArrow=oval;startFill=1;endArrow=oval;endFill=1;entryX=0;entryY=0.5;entryDx=0;entryDy=0;" edge="1" parent="1" source="XdlR8K-dp57HfDcc4aQY-144" target="XdlR8K-dp57HfDcc4aQY-4">
          <mxGeometry relative="1" as="geometry">
            <mxPoint x="1028" y="39.58" as="sourcePoint" />
            <mxPoint x="1086" y="39.58" as="targetPoint" />
          </mxGeometry>
        </mxCell>
        <mxCell id="XdlR8K-dp57HfDcc4aQY-3" value="passageiro" style="rounded=0;whiteSpace=wrap;html=1;container=0;" vertex="1" parent="1">
          <mxGeometry x="908" y="10" width="120" height="60" as="geometry" />
        </mxCell>
        <mxCell id="XdlR8K-dp57HfDcc4aQY-55" value="Complemento" style="text;html=1;align=center;verticalAlign=middle;resizable=0;points=[];autosize=1;strokeColor=none;fillColor=none;container=0;" vertex="1" parent="1">
          <mxGeometry x="1008" y="508" width="100" height="30" as="geometry" />
        </mxCell>
        <mxCell id="XdlR8K-dp57HfDcc4aQY-59" value="Estado" style="text;html=1;align=center;verticalAlign=middle;resizable=0;points=[];autosize=1;strokeColor=none;fillColor=none;container=0;" vertex="1" parent="1">
          <mxGeometry x="1008" y="698" width="60" height="30" as="geometry" />
        </mxCell>
        <mxCell id="XdlR8K-dp57HfDcc4aQY-77" value="" style="edgeStyle=segmentEdgeStyle;endArrow=none;html=1;rounded=1;endSize=8;startSize=8;startArrow=oval;startFill=1;endFill=0;" edge="1" parent="1">
          <mxGeometry width="50" height="50" relative="1" as="geometry">
            <mxPoint x="968" y="110" as="sourcePoint" />
            <mxPoint x="908" y="70" as="targetPoint" />
            <Array as="points">
              <mxPoint x="908" y="110" />
            </Array>
          </mxGeometry>
        </mxCell>
        <mxCell id="XdlR8K-dp57HfDcc4aQY-78" value="" style="edgeStyle=segmentEdgeStyle;endArrow=none;html=1;curved=0;rounded=0;endSize=8;startSize=8;endFill=0;startArrow=oval;startFill=0;" edge="1" parent="1">
          <mxGeometry width="50" height="50" relative="1" as="geometry">
            <mxPoint x="952" y="160" as="sourcePoint" />
            <mxPoint x="912" y="110" as="targetPoint" />
          </mxGeometry>
        </mxCell>
        <mxCell id="XdlR8K-dp57HfDcc4aQY-79" value="" style="edgeStyle=segmentEdgeStyle;endArrow=none;html=1;curved=0;rounded=0;endSize=8;startSize=8;endFill=0;startArrow=oval;startFill=0;" edge="1" parent="1">
          <mxGeometry width="50" height="50" relative="1" as="geometry">
            <mxPoint x="952" y="210" as="sourcePoint" />
            <mxPoint x="912" y="160" as="targetPoint" />
          </mxGeometry>
        </mxCell>
        <mxCell id="XdlR8K-dp57HfDcc4aQY-80" value="" style="edgeStyle=segmentEdgeStyle;endArrow=none;html=1;curved=0;rounded=0;endSize=8;startSize=8;endFill=0;startArrow=oval;startFill=0;" edge="1" parent="1">
          <mxGeometry width="50" height="50" relative="1" as="geometry">
            <mxPoint x="952" y="260" as="sourcePoint" />
            <mxPoint x="912" y="210" as="targetPoint" />
          </mxGeometry>
        </mxCell>
        <mxCell id="XdlR8K-dp57HfDcc4aQY-81" value="" style="edgeStyle=segmentEdgeStyle;endArrow=none;html=1;curved=0;rounded=0;endSize=8;startSize=8;endFill=0;startArrow=oval;startFill=0;" edge="1" parent="1">
          <mxGeometry width="50" height="50" relative="1" as="geometry">
            <mxPoint x="952" y="310" as="sourcePoint" />
            <mxPoint x="912" y="260" as="targetPoint" />
          </mxGeometry>
        </mxCell>
        <mxCell id="XdlR8K-dp57HfDcc4aQY-82" value="ID(PK)" style="text;html=1;align=center;verticalAlign=middle;resizable=0;points=[];autosize=1;strokeColor=none;fillColor=none;container=0;" vertex="1" parent="1">
          <mxGeometry x="963" y="98" width="60" height="30" as="geometry" />
        </mxCell>
        <mxCell id="XdlR8K-dp57HfDcc4aQY-83" value="Nome" style="text;html=1;align=center;verticalAlign=middle;resizable=0;points=[];autosize=1;strokeColor=none;fillColor=none;container=0;" vertex="1" parent="1">
          <mxGeometry x="958" y="148" width="60" height="30" as="geometry" />
        </mxCell>
        <mxCell id="XdlR8K-dp57HfDcc4aQY-84" value="CPF" style="text;html=1;align=center;verticalAlign=middle;resizable=0;points=[];autosize=1;strokeColor=none;fillColor=none;container=0;" vertex="1" parent="1">
          <mxGeometry x="953" y="198" width="50" height="30" as="geometry" />
        </mxCell>
        <mxCell id="XdlR8K-dp57HfDcc4aQY-85" value="Telefone" style="text;html=1;align=center;verticalAlign=middle;resizable=0;points=[];autosize=1;strokeColor=none;fillColor=none;container=0;" vertex="1" parent="1">
          <mxGeometry x="953" y="248" width="70" height="30" as="geometry" />
        </mxCell>
        <mxCell id="XdlR8K-dp57HfDcc4aQY-86" value="E-mail" style="text;html=1;align=center;verticalAlign=middle;resizable=0;points=[];autosize=1;strokeColor=none;fillColor=none;container=0;" vertex="1" parent="1">
          <mxGeometry x="948" y="298" width="60" height="30" as="geometry" />
        </mxCell>
        <mxCell id="XdlR8K-dp57HfDcc4aQY-87" value="" style="edgeStyle=segmentEdgeStyle;endArrow=none;html=1;curved=0;rounded=0;endSize=8;startSize=8;endFill=0;startArrow=oval;startFill=0;" edge="1" parent="1">
          <mxGeometry width="50" height="50" relative="1" as="geometry">
            <mxPoint x="952" y="360" as="sourcePoint" />
            <mxPoint x="912" y="310" as="targetPoint" />
          </mxGeometry>
        </mxCell>
        <mxCell id="XdlR8K-dp57HfDcc4aQY-88" value="Endereço" style="text;html=1;align=center;verticalAlign=middle;resizable=0;points=[];autosize=1;strokeColor=none;fillColor=none;container=0;" vertex="1" parent="1">
          <mxGeometry x="953" y="348" width="70" height="30" as="geometry" />
        </mxCell>
        <mxCell id="XdlR8K-dp57HfDcc4aQY-89" value="" style="edgeStyle=segmentEdgeStyle;endArrow=none;html=1;curved=0;rounded=0;endSize=8;startSize=8;endFill=0;startArrow=oval;startFill=0;" edge="1" parent="1">
          <mxGeometry width="50" height="50" relative="1" as="geometry">
            <mxPoint x="1008" y="420" as="sourcePoint" />
            <mxPoint x="968" y="370" as="targetPoint" />
          </mxGeometry>
        </mxCell>
        <mxCell id="XdlR8K-dp57HfDcc4aQY-90" value="" style="edgeStyle=segmentEdgeStyle;endArrow=none;html=1;curved=0;rounded=0;endSize=8;startSize=8;endFill=0;startArrow=oval;startFill=0;" edge="1" parent="1">
          <mxGeometry width="50" height="50" relative="1" as="geometry">
            <mxPoint x="1008" y="470" as="sourcePoint" />
            <mxPoint x="968" y="420" as="targetPoint" />
          </mxGeometry>
        </mxCell>
        <mxCell id="XdlR8K-dp57HfDcc4aQY-91" value="" style="edgeStyle=segmentEdgeStyle;endArrow=none;html=1;curved=0;rounded=0;endSize=8;startSize=8;endFill=0;startArrow=oval;startFill=0;" edge="1" parent="1">
          <mxGeometry width="50" height="50" relative="1" as="geometry">
            <mxPoint x="1008" y="520" as="sourcePoint" />
            <mxPoint x="968" y="470" as="targetPoint" />
          </mxGeometry>
        </mxCell>
        <mxCell id="XdlR8K-dp57HfDcc4aQY-92" value="" style="edgeStyle=segmentEdgeStyle;endArrow=none;html=1;curved=0;rounded=0;endSize=8;startSize=8;endFill=0;startArrow=oval;startFill=0;" edge="1" parent="1">
          <mxGeometry width="50" height="50" relative="1" as="geometry">
            <mxPoint x="1008" y="570" as="sourcePoint" />
            <mxPoint x="968" y="520" as="targetPoint" />
          </mxGeometry>
        </mxCell>
        <mxCell id="XdlR8K-dp57HfDcc4aQY-93" value="" style="edgeStyle=segmentEdgeStyle;endArrow=none;html=1;curved=0;rounded=0;endSize=8;startSize=8;endFill=0;startArrow=oval;startFill=0;" edge="1" parent="1">
          <mxGeometry width="50" height="50" relative="1" as="geometry">
            <mxPoint x="1008" y="615" as="sourcePoint" />
            <mxPoint x="968" y="565" as="targetPoint" />
          </mxGeometry>
        </mxCell>
        <mxCell id="XdlR8K-dp57HfDcc4aQY-94" value="" style="edgeStyle=segmentEdgeStyle;endArrow=none;html=1;curved=0;rounded=0;endSize=8;startSize=8;endFill=0;startArrow=oval;startFill=0;" edge="1" parent="1">
          <mxGeometry width="50" height="50" relative="1" as="geometry">
            <mxPoint x="1008" y="660" as="sourcePoint" />
            <mxPoint x="968" y="610" as="targetPoint" />
          </mxGeometry>
        </mxCell>
        <mxCell id="XdlR8K-dp57HfDcc4aQY-95" value="" style="edgeStyle=segmentEdgeStyle;endArrow=none;html=1;curved=0;rounded=0;endSize=8;startSize=8;endFill=0;startArrow=oval;startFill=0;" edge="1" parent="1">
          <mxGeometry width="50" height="50" relative="1" as="geometry">
            <mxPoint x="1008" y="710" as="sourcePoint" />
            <mxPoint x="968" y="660" as="targetPoint" />
          </mxGeometry>
        </mxCell>
        <mxCell id="XdlR8K-dp57HfDcc4aQY-96" value="Rua" style="text;html=1;align=center;verticalAlign=middle;resizable=0;points=[];autosize=1;strokeColor=none;fillColor=none;container=0;" vertex="1" parent="1">
          <mxGeometry x="1008" y="400" width="50" height="30" as="geometry" />
        </mxCell>
        <mxCell id="XdlR8K-dp57HfDcc4aQY-97" value="NúmeroCasa" style="text;html=1;align=center;verticalAlign=middle;resizable=0;points=[];autosize=1;strokeColor=none;fillColor=none;container=0;" vertex="1" parent="1">
          <mxGeometry x="1008" y="458" width="90" height="30" as="geometry" />
        </mxCell>
        <mxCell id="XdlR8K-dp57HfDcc4aQY-98" value="Bairro" style="text;html=1;align=center;verticalAlign=middle;resizable=0;points=[];autosize=1;strokeColor=none;fillColor=none;container=0;" vertex="1" parent="1">
          <mxGeometry x="1008" y="558" width="60" height="30" as="geometry" />
        </mxCell>
        <mxCell id="XdlR8K-dp57HfDcc4aQY-99" value="CEP" style="text;html=1;align=center;verticalAlign=middle;resizable=0;points=[];autosize=1;strokeColor=none;fillColor=none;container=0;" vertex="1" parent="1">
          <mxGeometry x="1008" y="600" width="50" height="30" as="geometry" />
        </mxCell>
        <mxCell id="XdlR8K-dp57HfDcc4aQY-100" value="Cidade" style="text;html=1;align=center;verticalAlign=middle;resizable=0;points=[];autosize=1;strokeColor=none;fillColor=none;container=0;" vertex="1" parent="1">
          <mxGeometry x="1008" y="648" width="60" height="30" as="geometry" />
        </mxCell>
        <mxCell id="XdlR8K-dp57HfDcc4aQY-144" value="Possui" style="rhombus;whiteSpace=wrap;html=1;direction=west;container=0;" vertex="1" parent="1">
          <mxGeometry x="1078" width="170" height="80" as="geometry" />
        </mxCell>
        <mxCell id="XdlR8K-dp57HfDcc4aQY-148" value="" style="edgeStyle=orthogonalEdgeStyle;rounded=0;orthogonalLoop=1;jettySize=auto;html=1;startArrow=oval;startFill=1;endArrow=oval;endFill=1;entryX=0;entryY=0.5;entryDx=0;entryDy=0;" edge="1" parent="1">
          <mxGeometry relative="1" as="geometry">
            <mxPoint x="1028" y="39.58" as="sourcePoint" />
            <mxPoint x="1078" y="39.58" as="targetPoint" />
          </mxGeometry>
        </mxCell>
        <mxCell id="XdlR8K-dp57HfDcc4aQY-4" value="dependente" style="rounded=0;whiteSpace=wrap;html=1;container=0;" vertex="1" parent="1">
          <mxGeometry x="1298" y="10" width="120" height="60" as="geometry" />
        </mxCell>
        <mxCell id="XdlR8K-dp57HfDcc4aQY-60" value="" style="edgeStyle=segmentEdgeStyle;endArrow=none;html=1;rounded=1;endSize=8;startSize=8;startArrow=oval;startFill=1;endFill=0;" edge="1" parent="1">
          <mxGeometry width="50" height="50" relative="1" as="geometry">
            <mxPoint x="1348" y="110" as="sourcePoint" />
            <mxPoint x="1308" y="70" as="targetPoint" />
            <Array as="points">
              <mxPoint x="1308" y="110" />
            </Array>
          </mxGeometry>
        </mxCell>
        <mxCell id="XdlR8K-dp57HfDcc4aQY-61" value="" style="edgeStyle=segmentEdgeStyle;endArrow=none;html=1;curved=0;rounded=0;endSize=8;startSize=8;endFill=0;startArrow=oval;startFill=0;" edge="1" parent="1">
          <mxGeometry width="50" height="50" relative="1" as="geometry">
            <mxPoint x="1348" y="160" as="sourcePoint" />
            <mxPoint x="1308" y="110" as="targetPoint" />
          </mxGeometry>
        </mxCell>
        <mxCell id="XdlR8K-dp57HfDcc4aQY-62" value="ID(PK)" style="text;html=1;align=center;verticalAlign=middle;resizable=0;points=[];autosize=1;strokeColor=none;fillColor=none;container=0;" vertex="1" parent="1">
          <mxGeometry x="1348" y="98" width="60" height="30" as="geometry" />
        </mxCell>
        <mxCell id="XdlR8K-dp57HfDcc4aQY-63" value="Nome" style="text;html=1;align=center;verticalAlign=middle;resizable=0;points=[];autosize=1;strokeColor=none;fillColor=none;container=0;" vertex="1" parent="1">
          <mxGeometry x="1348" y="198" width="60" height="30" as="geometry" />
        </mxCell>
        <mxCell id="XdlR8K-dp57HfDcc4aQY-65" value="" style="edgeStyle=segmentEdgeStyle;endArrow=none;html=1;curved=0;rounded=0;endSize=8;startSize=8;endFill=0;startArrow=oval;startFill=0;" edge="1" parent="1">
          <mxGeometry width="50" height="50" relative="1" as="geometry">
            <mxPoint x="1348" y="210" as="sourcePoint" />
            <mxPoint x="1308" y="160" as="targetPoint" />
          </mxGeometry>
        </mxCell>
        <mxCell id="XdlR8K-dp57HfDcc4aQY-66" value="DataNascimento" style="text;html=1;align=center;verticalAlign=middle;resizable=0;points=[];autosize=1;strokeColor=none;fillColor=none;container=0;" vertex="1" parent="1">
          <mxGeometry x="1348" y="240.5" width="110" height="30" as="geometry" />
        </mxCell>
        <mxCell id="XdlR8K-dp57HfDcc4aQY-197" value="" style="edgeStyle=segmentEdgeStyle;endArrow=none;html=1;rounded=1;endSize=8;startSize=8;startArrow=oval;startFill=0;endFill=0;" edge="1" parent="1">
          <mxGeometry width="50" height="50" relative="1" as="geometry">
            <mxPoint x="730" y="159.5" as="sourcePoint" />
            <mxPoint x="680" y="109.5" as="targetPoint" />
          </mxGeometry>
        </mxCell>
        <mxCell id="XdlR8K-dp57HfDcc4aQY-198" value="" style="edgeStyle=segmentEdgeStyle;endArrow=none;html=1;rounded=1;endSize=8;startSize=8;startArrow=oval;startFill=0;endFill=0;" edge="1" parent="1">
          <mxGeometry width="50" height="50" relative="1" as="geometry">
            <mxPoint x="730" y="200.5" as="sourcePoint" />
            <mxPoint x="680" y="150.5" as="targetPoint" />
          </mxGeometry>
        </mxCell>
        <mxCell id="XdlR8K-dp57HfDcc4aQY-199" value="" style="edgeStyle=segmentEdgeStyle;endArrow=none;html=1;curved=0;rounded=0;endSize=8;startSize=8;endFill=0;startArrow=oval;startFill=0;" edge="1" parent="1">
          <mxGeometry width="50" height="50" relative="1" as="geometry">
            <mxPoint x="730" y="280.5" as="sourcePoint" />
            <mxPoint x="680" y="230.5" as="targetPoint" />
          </mxGeometry>
        </mxCell>
        <mxCell id="XdlR8K-dp57HfDcc4aQY-200" value="" style="edgeStyle=segmentEdgeStyle;endArrow=none;html=1;curved=0;rounded=0;endSize=8;startSize=8;endFill=0;startArrow=oval;startFill=0;" edge="1" parent="1">
          <mxGeometry width="50" height="50" relative="1" as="geometry">
            <mxPoint x="730" y="330.5" as="sourcePoint" />
            <mxPoint x="680" y="280.5" as="targetPoint" />
          </mxGeometry>
        </mxCell>
        <mxCell id="XdlR8K-dp57HfDcc4aQY-201" value="IDPassageiro(FK)" style="text;html=1;align=center;verticalAlign=middle;resizable=0;points=[];autosize=1;strokeColor=none;fillColor=none;container=0;" vertex="1" parent="1">
          <mxGeometry x="730" y="188.5" width="120" height="30" as="geometry" />
        </mxCell>
        <mxCell id="XdlR8K-dp57HfDcc4aQY-202" value="IDAssento(FK)" style="text;html=1;align=center;verticalAlign=middle;resizable=0;points=[];autosize=1;strokeColor=none;fillColor=none;container=0;" vertex="1" parent="1">
          <mxGeometry x="730" y="228" width="100" height="30" as="geometry" />
        </mxCell>
        <mxCell id="XdlR8K-dp57HfDcc4aQY-203" value="DataReserva" style="text;html=1;align=center;verticalAlign=middle;resizable=0;points=[];autosize=1;strokeColor=none;fillColor=none;container=0;" vertex="1" parent="1">
          <mxGeometry x="735" y="270.5" width="90" height="30" as="geometry" />
        </mxCell>
        <mxCell id="XdlR8K-dp57HfDcc4aQY-206" value="HoraReserva" style="text;html=1;align=center;verticalAlign=middle;resizable=0;points=[];autosize=1;strokeColor=none;fillColor=none;container=0;" vertex="1" parent="1">
          <mxGeometry x="735" y="310.5" width="90" height="30" as="geometry" />
        </mxCell>
        <mxCell id="XdlR8K-dp57HfDcc4aQY-207" value="" style="edgeStyle=segmentEdgeStyle;endArrow=none;html=1;rounded=1;endSize=8;startSize=8;startArrow=oval;startFill=0;endFill=0;" edge="1" parent="1">
          <mxGeometry width="50" height="50" relative="1" as="geometry">
            <mxPoint x="730" y="238.5" as="sourcePoint" />
            <mxPoint x="680" y="188.5" as="targetPoint" />
          </mxGeometry>
        </mxCell>
        <mxCell id="XdlR8K-dp57HfDcc4aQY-208" value="IDVoo(FK)" style="text;html=1;align=center;verticalAlign=middle;resizable=0;points=[];autosize=1;strokeColor=none;fillColor=none;container=0;" vertex="1" parent="1">
          <mxGeometry x="730" y="148" width="80" height="30" as="geometry" />
        </mxCell>
        <mxCell id="XdlR8K-dp57HfDcc4aQY-211" value="" style="edgeStyle=segmentEdgeStyle;endArrow=none;html=1;rounded=1;endSize=8;startSize=8;startArrow=oval;startFill=1;endFill=0;" edge="1" parent="1">
          <mxGeometry width="50" height="50" relative="1" as="geometry">
            <mxPoint x="730" y="110" as="sourcePoint" />
            <mxPoint x="680" y="60" as="targetPoint" />
          </mxGeometry>
        </mxCell>
        <mxCell id="XdlR8K-dp57HfDcc4aQY-212" value="ID(PK)" style="text;html=1;align=center;verticalAlign=middle;resizable=0;points=[];autosize=1;strokeColor=none;fillColor=none;" vertex="1" parent="1">
          <mxGeometry x="740" y="98" width="60" height="30" as="geometry" />
        </mxCell>
        <mxCell id="XdlR8K-dp57HfDcc4aQY-213" value="" style="edgeStyle=segmentEdgeStyle;endArrow=none;html=1;curved=0;rounded=0;endSize=8;startSize=8;endFill=0;startArrow=oval;startFill=0;" edge="1" parent="1">
          <mxGeometry width="50" height="50" relative="1" as="geometry">
            <mxPoint x="1348" y="260" as="sourcePoint" />
            <mxPoint x="1308" y="210" as="targetPoint" />
          </mxGeometry>
        </mxCell>
        <mxCell id="XdlR8K-dp57HfDcc4aQY-214" value="IDPassageiro(FK)" style="text;html=1;align=center;verticalAlign=middle;resizable=0;points=[];autosize=1;strokeColor=none;fillColor=none;" vertex="1" parent="1">
          <mxGeometry x="1348" y="148" width="120" height="30" as="geometry" />
        </mxCell>
        <mxCell id="XdlR8K-dp57HfDcc4aQY-215" value="" style="edgeStyle=segmentEdgeStyle;endArrow=none;html=1;curved=0;rounded=0;endSize=8;startSize=8;endFill=0;startArrow=oval;startFill=0;" edge="1" parent="1">
          <mxGeometry width="50" height="50" relative="1" as="geometry">
            <mxPoint x="498" y="218.5" as="sourcePoint" />
            <mxPoint x="458" y="168.5" as="targetPoint" />
          </mxGeometry>
        </mxCell>
        <mxCell id="XdlR8K-dp57HfDcc4aQY-216" value="IDVoo(FK)" style="text;html=1;align=center;verticalAlign=middle;resizable=0;points=[];autosize=1;strokeColor=none;fillColor=none;" vertex="1" parent="1">
          <mxGeometry x="500" y="158" width="80" height="30" as="geometry" />
        </mxCell>
      </root>
    </mxGraphModel>
  </diagram>
</mxfile>
